<?xml version="1.0" encoding="utf-8"?>
<!-- Generator: Adobe Illustrator 22.1.0, SVG Export Plug-In . SVG Version: 6.00 Build 0)  -->
<svg version="1.1" id="Ebene_2" xmlns="http://www.w3.org/2000/svg" xmlns:xlink="http://www.w3.org/1999/xlink" x="0px" y="0px"
	 viewBox="0 0 1615.7 1077.2" style="enable-background:new 0 0 1615.7 1077.2;" xml:space="preserve">
<style type="text/css">
	.st0{fill:none;stroke:#160853;stroke-width:0.25;stroke-linecap:round;stroke-linejoin:round;}
	.st1{fill:none;stroke:#FF1A1A;stroke-width:0.25;stroke-linecap:round;stroke-linejoin:round;}
</style>
<g>
	<path class="st0" d="M1530.7,93.1c0-0.3,0-0.7,0-1c-0.4-27.3-9-46.1-34-46.1c-163.5,0-326.9,0-490.4,0c-8.8,0-16.4,1.9-24.1,6.1
		c-10.3,5.5-20.5,8.1-32.2,8.1c-94.7,0-189.5,0-284.2,0c-11.7,0-21.9-2.6-32.2-8.1c-6.3-3.4-12.7-5.3-19.9-5.9c-0.3,0-0.7-0.1-1-0.1
		"/>
	<path class="st0" d="M610.4,46.1c-163.8,0-327.6,0-491.4,0c-25,0-33.6,18.7-34,46.1c0,0.3,0,0.7,0,1"/>
	<path class="st0" d="M1005.3,148.1c163.8,0,327.6,0,491.4,0c25.7,0,34-19.7,34-48.2c0-0.9,0-1.9,0-2.8c0-0.6,0-1.1,0-1.7"/>
	<path class="st0" d="M85,95.4c0,0.6,0,1.1,0,1.7c0,0.9,0,1.9,0,2.8c0,28.5,8.3,48.2,34,48.2c163.5,0,326.9,0,490.4,0
		c8.8,0,16.4-1.9,24.1-6.1c10.3-5.5,20.5-8.1,32.2-8.1c94.7,0,189.5,0,284.2,0c11.7,0,21.9,2.6,32.2,8.1c6.3,3.4,12.7,5.3,19.9,5.9
		c0.3,0,0.7,0.1,1,0.1"/>
	<path class="st1" d="M1358.8,68.2c1.3-1.2,1.5-2.9,0.4-4.2c-1.2-1.4-2.5-1.8-4.2-1.8c-1.8,0-3,0.3-4.2,1.8
		c-1.1,1.4-0.9,3.1,0.4,4.2c1.5,1.4,2.2,2.9,2.2,5c0,15,0,30,0,45c0,2.1-0.6,3.6-2.2,5c-1.3,1.2-1.5,2.9-0.4,4.2
		c1.2,1.4,2.5,1.8,4.2,1.8s3-0.3,4.2-1.8c1.1-1.4,0.9-3.1-0.4-4.2c-1.5-1.4-2.2-2.9-2.2-5c0-15,0-30,0-45
		C1356.6,71.1,1357.3,69.7,1358.8,68.2z"/>
	<path class="st1" d="M1500.5,69.6c1.3-1.2,1.5-2.9,0.4-4.2c-1.2-1.4-2.5-1.8-4.2-1.8s-3,0.3-4.2,1.8c-1.1,1.4-0.9,3.1,0.4,4.2
		c1.5,1.4,2.2,2.9,2.2,5c0,15,0,30,0,45c0,2.1-0.6,3.6-2.2,5c-1.3,1.2-1.5,2.9-0.4,4.2c1.2,1.4,2.5,1.8,4.2,1.8s3-0.3,4.2-1.8
		c1.1-1.4,0.9-3.1-0.4-4.2c-1.5-1.4-2.2-2.9-2.2-5c0-15,0-30,0-45C1498.4,72.5,1499,71.1,1500.5,69.6z"/>
	<path class="st1" d="M1398.5,69.6c1.3-1.2,1.5-2.9,0.4-4.2c-1.2-1.4-2.5-1.8-4.2-1.8c-1.8,0-3,0.3-4.2,1.8
		c-1.1,1.4-0.9,3.1,0.4,4.2c1.5,1.4,2.2,2.9,2.2,5c0,15,0,30,0,45c0,2.1-0.6,3.6-2.2,5c-1.3,1.2-1.5,2.9-0.4,4.2
		c1.2,1.4,2.5,1.8,4.2,1.8c1.8,0,3-0.3,4.2-1.8c1.1-1.4,0.9-3.1-0.4-4.2c-1.5-1.4-2.2-2.9-2.2-5c0-15,0-30,0-45
		C1396.3,72.5,1397,71.1,1398.5,69.6z"/>
	<path class="st1" d="M1456.7,111.6c1.2,0,2.1,0.4,2.9,1.3c2.7,2.7,7.3,0.8,7.3-3c0-3.8-4.6-5.7-7.3-3c-0.9,0.9-1.9,1.3-3.2,1.3
		c-1,0-1.9-0.1-2.8-0.2c-1-0.1-2-0.3-3.1-0.6c-1-0.3-2-0.6-3-0.9c-0.5-0.2-0.9-0.4-1.4-0.6c-0.5-0.2-0.9-0.4-1.3-0.7
		c-0.4-0.2-0.8-0.5-1.2-0.8c-0.4-0.3-0.7-0.5-1.1-0.8c-0.3-0.3-0.7-0.6-1-0.9c-0.3-0.3-0.6-0.6-0.8-0.9c-0.2-0.3-0.4-0.6-0.6-1
		c-0.2-0.3-0.3-0.6-0.5-1c-0.1-0.3-0.2-0.6-0.3-1c-0.1-0.4-0.2-0.7-0.2-1.1c0-0.3,0-0.6,0-0.9c0-0.3,0.1-0.6,0.1-0.9
		c0.1-0.6,0.3-1.2,0.6-1.7c0.3-0.6,0.7-1.2,1.1-1.7c0.2-0.3,0.5-0.6,0.8-0.9c0.3-0.3,0.6-0.6,0.9-0.8c0.3-0.3,0.7-0.6,1.1-0.8
		c0.4-0.3,0.8-0.5,1.2-0.8c0.9-0.5,1.9-1,2.9-1.3c1.1-0.4,2.2-0.7,3.3-1c1.2-0.3,2.3-0.5,3.5-0.6c0.6-0.1,1.2-0.1,1.8-0.1
		c1.3,0,2.3,0.3,3.2,1.3c2.7,2.7,7.3,0.8,7.3-3c0-3.8-4.6-5.7-7.3-3c-0.9,0.9-1.7,1.2-2.9,1.3c-0.3,0-0.5,0-0.8,0
		c-1.4,0.1-2.8,0.2-4.2,0.5c-1.4,0.3-2.7,0.6-4.1,1c-0.6,0.2-1.3,0.5-1.9,0.7c-0.6,0.3-1.2,0.5-1.8,0.8c-0.6,0.3-1.1,0.6-1.6,1
		c-0.5,0.3-1,0.7-1.5,1c-0.4,0.4-0.9,0.7-1.3,1.1c-0.4,0.4-0.8,0.8-1.1,1.2c-0.6,0.8-1.2,1.6-1.6,2.5c-0.4,0.9-0.7,1.8-0.9,2.7
		c-0.2,1-0.2,2-0.1,3c0.1,1,0.4,2.1,0.9,3c0.2,0.5,0.5,1,0.8,1.5c0.3,0.5,0.6,0.9,1,1.4c0.4,0.5,0.8,0.9,1.2,1.3
		c0.4,0.4,0.9,0.8,1.4,1.2c0.5,0.4,1,0.7,1.5,1c0.5,0.3,1.1,0.6,1.6,0.9c1.1,0.6,2.3,1.1,3.5,1.5c1.2,0.4,2.4,0.7,3.6,0.9
		c1.3,0.2,2.5,0.4,3.8,0.5C1455.6,111.5,1456.1,111.5,1456.7,111.6z"/>
	<path class="st1" d="M590.4,126.9c-1.3,0.4-2.4,1.1-3.4,2.1c-2.7,2.6-8.8,2.3-10-1.6c-0.7-2.1,0.8-3.9,2.6-4.7c2-0.9,3.7-0.9,5.7,0
		c2.7,1.2,4,1.2,6.7,0c22.5-9.6,22.5-41.5,0-51.1c-2.7-1.2-4-1.2-6.7,0c-2,0.9-3.7,0.9-5.7,0c-1.8-0.8-3.3-2.5-2.6-4.7
		c1.3-3.9,7.4-4.2,10-1.6c1,1,2.1,1.6,3.4,2.1c13,4.1,21.8,16.1,21.8,29.7C612.3,110.7,603.4,122.8,590.4,126.9z"/>
	<path class="st1" d="M1025.3,126.9c1.3,0.4,2.4,1.1,3.4,2.1c2.7,2.6,8.8,2.3,10-1.6c0.7-2.1-0.8-3.9-2.6-4.7c-2-0.9-3.7-0.9-5.7,0
		c-2.7,1.2-4,1.2-6.7,0c-22.5-9.6-22.5-41.5,0-51.1c2.7-1.2,4-1.2,6.7,0c2,0.9,3.7,0.9,5.7,0c1.8-0.8,3.3-2.5,2.6-4.7
		c-1.3-3.9-7.4-4.2-10-1.6c-1,1-2.1,1.6-3.4,2.1c-13,4.1-21.8,16.1-21.8,29.7C1003.4,110.7,1012.3,122.8,1025.3,126.9z"/>
	<path class="st1" d="M936.3,109.6c0-2.9-3.2-4.2-5.7-4.2c-2.4,0-5.7,1.4-5.7,4.3c0,2.9,3.2,4.2,5.7,4.2
		C933,113.8,936.3,112.5,936.3,109.6z"/>
	<path class="st1" d="M887.2,109.6c0-2.9-3.2-4.2-5.7-4.2c-2.4,0-5.7,1.4-5.7,4.3c0,2.9,3.2,4.2,5.7,4.2
		C883.9,113.8,887.2,112.5,887.2,109.6z"/>
	<path class="st1" d="M838.1,109.6c0-2.9-3.2-4.2-5.7-4.2c-2.4,0-5.7,1.4-5.7,4.3c0,2.9,3.2,4.2,5.7,4.2
		C834.9,113.8,838.1,112.5,838.1,109.6z"/>
	<path class="st1" d="M789,109.6c0-2.9-3.2-4.2-5.7-4.2c-2.4,0-5.7,1.4-5.7,4.3c0,2.9,3.2,4.2,5.7,4.2
		C785.8,113.8,789,112.5,789,109.6z"/>
	<path class="st1" d="M739.9,109.6c0-2.9-3.2-4.2-5.7-4.2c-2.4,0-5.7,1.4-5.7,4.3c0,2.9,3.2,4.2,5.7,4.2
		C736.7,113.8,739.9,112.5,739.9,109.6z"/>
	<path class="st1" d="M690.8,109.6c0-2.9-3.2-4.2-5.7-4.2c-2.4,0-5.7,1.4-5.7,4.3c0,2.9,3.2,4.2,5.7,4.2
		C687.6,113.8,690.8,112.5,690.8,109.6z"/>
	<path class="st1" d="M690.8,84.7c0,2.9-3.2,4.2-5.7,4.2c-2.4,0-5.7-1.4-5.7-4.3c0-2.9,3.2-4.2,5.7-4.2
		C687.6,80.4,690.8,81.7,690.8,84.7z"/>
	<path class="st1" d="M739.9,84.7c0,2.9-3.2,4.2-5.7,4.2c-2.4,0-5.7-1.4-5.7-4.3c0-2.9,3.2-4.2,5.7-4.2
		C736.7,80.4,739.9,81.7,739.9,84.7z"/>
	<path class="st1" d="M789,84.7c0,2.9-3.2,4.2-5.7,4.2c-2.4,0-5.7-1.4-5.7-4.3c0-2.9,3.2-4.2,5.7-4.2C785.8,80.4,789,81.7,789,84.7z
		"/>
	<path class="st1" d="M838.1,84.7c0,2.9-3.2,4.2-5.7,4.2c-2.4,0-5.7-1.4-5.7-4.3c0-2.9,3.2-4.2,5.7-4.2
		C834.9,80.4,838.1,81.7,838.1,84.7z"/>
	<path class="st1" d="M887.2,84.7c0,2.9-3.2,4.2-5.7,4.2c-2.4,0-5.7-1.4-5.7-4.3c0-2.9,3.2-4.2,5.7-4.2
		C883.9,80.4,887.2,81.7,887.2,84.7z"/>
	<path class="st1" d="M936.3,84.7c0,2.9-3.2,4.2-5.7,4.2c-2.4,0-5.7-1.4-5.7-4.3c0-2.9,3.2-4.2,5.7-4.2
		C933,80.4,936.3,81.7,936.3,84.7z"/>
	<path class="st1" d="M960.9,97.2c0-2.9-3.2-4.2-5.7-4.2c-2.4,0-5.7,1.4-5.7,4.3c0,2.9,3.2,4.2,5.7,4.2
		C957.6,101.4,960.8,100.1,960.9,97.2z"/>
	<path class="st1" d="M911.8,97.2c0-2.9-3.2-4.2-5.7-4.2c-2.4,0-5.7,1.4-5.7,4.3c0,2.9,3.2,4.2,5.7,4.2
		C908.5,101.4,911.7,100.1,911.8,97.2z"/>
	<path class="st1" d="M862.7,97.2c0-2.9-3.2-4.2-5.7-4.2c-2.4,0-5.7,1.4-5.7,4.3c0,2.9,3.2,4.2,5.7,4.2
		C859.4,101.4,862.6,100.1,862.7,97.2z"/>
	<path class="st1" d="M813.6,97.2c0-2.9-3.2-4.2-5.7-4.2c-2.4,0-5.7,1.4-5.7,4.3c0,2.9,3.2,4.2,5.7,4.2
		C810.3,101.4,813.5,100.1,813.6,97.2z"/>
	<path class="st1" d="M764.5,97.2c0-2.9-3.2-4.2-5.7-4.2c-2.4,0-5.7,1.4-5.7,4.3c0,2.9,3.2,4.2,5.7,4.2
		C761.2,101.4,764.5,100.1,764.5,97.2z"/>
	<path class="st1" d="M715.4,97.2c0-2.9-3.2-4.2-5.7-4.2c-2.4,0-5.7,1.4-5.7,4.3c0,2.9,3.2,4.2,5.7,4.2
		C712.1,101.4,715.4,100.1,715.4,97.2z"/>
	<path class="st1" d="M666.3,97.2c0-2.9-3.2-4.2-5.7-4.2c-2.4,0-5.7,1.4-5.7,4.3c0,2.9,3.2,4.2,5.7,4.2
		C663,101.4,666.3,100.1,666.3,97.2z"/>
	<path class="st1" d="M159,111.6c-1.2,0-2.1,0.4-2.9,1.3c-2.7,2.7-7.3,0.8-7.3-3c0-3.8,4.6-5.7,7.3-3c0.9,0.9,1.9,1.3,3.2,1.3
		c1,0,1.9-0.1,2.8-0.2c1-0.1,2-0.3,3.1-0.6c1-0.3,2-0.6,3-0.9c0.5-0.2,0.9-0.4,1.4-0.6c0.5-0.2,0.9-0.4,1.3-0.7
		c0.4-0.2,0.8-0.5,1.2-0.8c0.4-0.3,0.7-0.5,1.1-0.8c0.3-0.3,0.7-0.6,1-0.9c0.3-0.3,0.6-0.6,0.8-0.9c0.2-0.3,0.4-0.6,0.6-1
		c0.2-0.3,0.3-0.6,0.5-1c0.1-0.3,0.2-0.6,0.3-1c0.1-0.4,0.1-0.7,0.2-1.1c0-0.3,0-0.6,0-0.9c0-0.3-0.1-0.6-0.1-0.9
		c-0.1-0.6-0.3-1.2-0.6-1.7c-0.3-0.6-0.7-1.2-1.1-1.7c-0.2-0.3-0.5-0.6-0.8-0.9c-0.3-0.3-0.6-0.6-0.9-0.8c-0.3-0.3-0.7-0.6-1.1-0.8
		c-0.4-0.3-0.8-0.5-1.2-0.8c-0.9-0.5-1.9-1-2.9-1.3c-1.1-0.4-2.2-0.7-3.3-1c-1.2-0.3-2.3-0.5-3.5-0.6c-0.6-0.1-1.2-0.1-1.8-0.1
		c-1.3,0-2.3,0.3-3.2,1.3c-2.7,2.7-7.3,0.8-7.3-3c0-3.8,4.6-5.7,7.3-3c0.9,0.9,1.7,1.2,2.9,1.3c0.3,0,0.5,0,0.8,0
		c1.4,0.1,2.8,0.2,4.2,0.5c1.4,0.3,2.7,0.6,4.1,1c0.6,0.2,1.3,0.5,1.9,0.7c0.6,0.3,1.2,0.5,1.8,0.8c0.6,0.3,1.1,0.6,1.6,1
		c0.5,0.3,1,0.7,1.5,1c0.4,0.4,0.9,0.7,1.3,1.1c0.4,0.4,0.8,0.8,1.1,1.2c0.6,0.8,1.2,1.6,1.6,2.5c0.4,0.9,0.7,1.8,0.9,2.7
		c0.2,1,0.2,2,0.1,3c-0.1,1-0.4,2.1-0.9,3c-0.2,0.5-0.5,1-0.8,1.5c-0.3,0.5-0.6,0.9-1,1.4c-0.4,0.5-0.8,0.9-1.2,1.3
		c-0.4,0.4-0.9,0.8-1.4,1.2c-0.5,0.4-1,0.7-1.5,1c-0.5,0.3-1.1,0.6-1.6,0.9c-1.1,0.6-2.3,1.1-3.5,1.5c-1.2,0.4-2.4,0.7-3.6,0.9
		c-1.3,0.2-2.5,0.4-3.8,0.5C160.1,111.5,159.6,111.5,159,111.6z"/>
	<path class="st1" d="M217.2,69.6c-1.3-1.2-1.5-2.9-0.4-4.2c1.2-1.4,2.5-1.8,4.2-1.8c1.8,0,3,0.3,4.2,1.8c1.1,1.4,0.9,3.1-0.4,4.2
		c-1.5,1.4-2.2,2.9-2.2,5c0,15,0,30,0,45c0,2.1,0.6,3.6,2.2,5c1.3,1.2,1.5,2.9,0.4,4.2c-1.2,1.4-2.5,1.8-4.2,1.8
		c-1.8,0-3-0.3-4.2-1.8c-1.1-1.4-0.9-3.1,0.4-4.2c1.5-1.4,2.2-2.9,2.2-5c0-15,0-30,0-45C219.4,72.5,218.7,71.1,217.2,69.6z"/>
	<path class="st1" d="M115.2,69.6c-1.3-1.2-1.5-2.9-0.4-4.2c1.2-1.4,2.5-1.8,4.2-1.8c1.8,0,3,0.3,4.2,1.8c1.1,1.4,0.9,3.1-0.4,4.2
		c-1.5,1.4-2.2,2.9-2.2,5c0,15,0,30,0,45c0,2.1,0.6,3.6,2.2,5c1.3,1.2,1.5,2.9,0.4,4.2c-1.2,1.4-2.5,1.8-4.2,1.8
		c-1.8,0-3-0.3-4.2-1.8c-1.1-1.4-0.9-3.1,0.4-4.2c1.5-1.4,2.2-2.9,2.2-5c0-15,0-30,0-45C117.3,72.5,116.7,71.1,115.2,69.6z"/>
	<path class="st1" d="M256.9,68.2c-1.3-1.2-1.5-2.9-0.4-4.2c1.2-1.4,2.5-1.8,4.2-1.8c1.8,0,3,0.3,4.2,1.8c1.1,1.4,0.9,3.1-0.4,4.2
		c-1.5,1.4-2.2,2.9-2.2,5c0,15,0,30,0,45c0,2.1,0.6,3.6,2.2,5c1.3,1.2,1.5,2.9,0.4,4.2c-1.2,1.4-2.5,1.8-4.2,1.8
		c-1.8,0-3-0.3-4.2-1.8c-1.1-1.4-0.9-3.1,0.4-4.2c1.5-1.4,2.2-2.9,2.2-5c0-15,0-30,0-45C259.1,71.1,258.4,69.7,256.9,68.2z"/>
</g>
<g>
	<path class="st0" d="M1530.7,275.6c0-0.3,0-0.7,0-1c-0.4-27.3-9-46.1-34-46.1c-163.5,0-326.9,0-490.4,0c-8.8,0-16.4,1.9-24.1,6.1
		c-10.3,5.5-20.5,8.1-32.2,8.1c-94.7,0-189.5,0-284.2,0c-11.7,0-21.9-2.6-32.2-8.1c-6.3-3.4-12.7-5.3-19.9-5.9c-0.3,0-0.7-0.1-1-0.1
		"/>
	<path class="st0" d="M610.4,228.6c-163.8,0-327.6,0-491.4,0c-25,0-33.6,18.7-34,46.1c0,0.3,0,0.7,0,1"/>
	<path class="st0" d="M1005.3,330.6c163.8,0,327.6,0,491.4,0c25.7,0,34-19.7,34-48.2c0-0.9,0-1.9,0-2.8c0-0.6,0-1.1,0-1.7"/>
	<path class="st0" d="M85,277.9c0,0.6,0,1.1,0,1.7c0,0.9,0,1.9,0,2.8c0,28.5,8.3,48.2,34,48.2c163.5,0,326.9,0,490.4,0
		c8.8,0,16.4-1.9,24.1-6.1c10.3-5.5,20.5-8.1,32.2-8.1c94.7,0,189.5,0,284.2,0c11.7,0,21.9,2.6,32.2,8.1c6.3,3.4,12.7,5.3,19.9,5.9
		c0.3,0,0.7,0.1,1,0.1"/>
	<path class="st1" d="M1358.8,250.7c1.3-1.2,1.5-2.9,0.4-4.2c-1.2-1.4-2.5-1.8-4.2-1.8c-1.8,0-3,0.3-4.2,1.8
		c-1.1,1.4-0.9,3.1,0.4,4.2c1.5,1.4,2.2,2.9,2.2,5c0,15,0,30,0,45c0,2.1-0.6,3.6-2.2,5c-1.3,1.2-1.5,2.9-0.4,4.2
		c1.2,1.4,2.5,1.8,4.2,1.8s3-0.3,4.2-1.8c1.1-1.4,0.9-3.1-0.4-4.2c-1.5-1.4-2.2-2.9-2.2-5c0-15,0-30,0-45
		C1356.6,253.6,1357.3,252.2,1358.8,250.7z"/>
	<path class="st1" d="M1500.5,252.1c1.3-1.2,1.5-2.9,0.4-4.2c-1.2-1.4-2.5-1.8-4.2-1.8s-3,0.3-4.2,1.8c-1.1,1.4-0.9,3.1,0.4,4.2
		c1.5,1.4,2.2,2.9,2.2,5c0,15,0,30,0,45c0,2.1-0.6,3.6-2.2,5c-1.3,1.2-1.5,2.9-0.4,4.2c1.2,1.4,2.5,1.8,4.2,1.8s3-0.3,4.2-1.8
		c1.1-1.4,0.9-3.1-0.4-4.2c-1.5-1.4-2.2-2.9-2.2-5c0-15,0-30,0-45C1498.4,255,1499,253.6,1500.5,252.1z"/>
	<path class="st1" d="M1398.5,252.1c1.3-1.2,1.5-2.9,0.4-4.2c-1.2-1.4-2.5-1.8-4.2-1.8c-1.8,0-3,0.3-4.2,1.8
		c-1.1,1.4-0.9,3.1,0.4,4.2c1.5,1.4,2.2,2.9,2.2,5c0,15,0,30,0,45c0,2.1-0.6,3.6-2.2,5c-1.3,1.2-1.5,2.9-0.4,4.2
		c1.2,1.4,2.5,1.8,4.2,1.8c1.8,0,3-0.3,4.2-1.8c1.1-1.4,0.9-3.1-0.4-4.2c-1.5-1.4-2.2-2.9-2.2-5c0-15,0-30,0-45
		C1396.3,255,1397,253.6,1398.5,252.1z"/>
	<path class="st1" d="M1456.7,294.1c1.2,0,2.1,0.4,2.9,1.3c2.7,2.7,7.3,0.8,7.3-3c0-3.8-4.6-5.7-7.3-3c-0.9,0.9-1.9,1.3-3.2,1.3
		c-1,0-1.9-0.1-2.8-0.2c-1-0.1-2-0.3-3.1-0.6c-1-0.3-2-0.6-3-0.9c-0.5-0.2-0.9-0.4-1.4-0.6c-0.5-0.2-0.9-0.4-1.3-0.7
		c-0.4-0.2-0.8-0.5-1.2-0.8c-0.4-0.3-0.7-0.5-1.1-0.8c-0.3-0.3-0.7-0.6-1-0.9c-0.3-0.3-0.6-0.6-0.8-0.9c-0.2-0.3-0.4-0.6-0.6-1
		c-0.2-0.3-0.3-0.6-0.5-1c-0.1-0.3-0.2-0.6-0.3-1c-0.1-0.4-0.2-0.7-0.2-1.1c0-0.3,0-0.6,0-0.9c0-0.3,0.1-0.6,0.1-0.9
		c0.1-0.6,0.3-1.2,0.6-1.7c0.3-0.6,0.7-1.2,1.1-1.7c0.2-0.3,0.5-0.6,0.8-0.9c0.3-0.3,0.6-0.6,0.9-0.8c0.3-0.3,0.7-0.6,1.1-0.8
		c0.4-0.3,0.8-0.5,1.2-0.8c0.9-0.5,1.9-1,2.9-1.3c1.1-0.4,2.2-0.7,3.3-1c1.2-0.3,2.3-0.5,3.5-0.6c0.6-0.1,1.2-0.1,1.8-0.1
		c1.3,0,2.3,0.3,3.2,1.3c2.7,2.7,7.3,0.8,7.3-3c0-3.8-4.6-5.7-7.3-3c-0.9,0.9-1.7,1.2-2.9,1.3c-0.3,0-0.5,0-0.8,0
		c-1.4,0.1-2.8,0.2-4.2,0.5c-1.4,0.3-2.7,0.6-4.1,1c-0.6,0.2-1.3,0.5-1.9,0.7c-0.6,0.3-1.2,0.5-1.8,0.8c-0.6,0.3-1.1,0.6-1.6,1
		c-0.5,0.3-1,0.7-1.5,1c-0.4,0.4-0.9,0.7-1.3,1.1c-0.4,0.4-0.8,0.8-1.1,1.2c-0.6,0.8-1.2,1.6-1.6,2.5c-0.4,0.9-0.7,1.8-0.9,2.7
		c-0.2,1-0.2,2-0.1,3c0.1,1,0.4,2.1,0.9,3c0.2,0.5,0.5,1,0.8,1.5c0.3,0.5,0.6,0.9,1,1.4c0.4,0.5,0.8,0.9,1.2,1.3
		c0.4,0.4,0.9,0.8,1.4,1.2c0.5,0.4,1,0.7,1.5,1c0.5,0.3,1.1,0.6,1.6,0.9c1.1,0.6,2.3,1.1,3.5,1.5c1.2,0.4,2.4,0.7,3.6,0.9
		c1.3,0.2,2.5,0.4,3.8,0.5C1455.6,294,1456.1,294,1456.7,294.1z"/>
	<path class="st1" d="M590.4,309.4c-1.3,0.4-2.4,1.1-3.4,2.1c-2.7,2.6-8.8,2.3-10-1.6c-0.7-2.1,0.8-3.9,2.6-4.7c2-0.9,3.7-0.9,5.7,0
		c2.7,1.2,4,1.2,6.7,0c22.5-9.6,22.5-41.5,0-51.1c-2.7-1.2-4-1.2-6.7,0c-2,0.9-3.7,0.9-5.7,0c-1.8-0.8-3.3-2.5-2.6-4.7
		c1.3-3.9,7.4-4.2,10-1.6c1,1,2.1,1.6,3.4,2.1c13,4.1,21.8,16.1,21.8,29.7C612.3,293.2,603.4,305.3,590.4,309.4z"/>
	<path class="st1" d="M1025.3,309.4c1.3,0.4,2.4,1.1,3.4,2.1c2.7,2.6,8.8,2.3,10-1.6c0.7-2.1-0.8-3.9-2.6-4.7c-2-0.9-3.7-0.9-5.7,0
		c-2.7,1.2-4,1.2-6.7,0c-22.5-9.6-22.5-41.5,0-51.1c2.7-1.2,4-1.2,6.7,0c2,0.9,3.7,0.9,5.7,0c1.8-0.8,3.3-2.5,2.6-4.7
		c-1.3-3.9-7.4-4.2-10-1.6c-1,1-2.1,1.6-3.4,2.1c-13,4.1-21.8,16.1-21.8,29.7C1003.4,293.2,1012.3,305.3,1025.3,309.4z"/>
	<path class="st1" d="M936.3,292.1c0-2.9-3.2-4.2-5.7-4.2c-2.4,0-5.7,1.4-5.7,4.3c0,2.9,3.2,4.2,5.7,4.2
		C933,296.3,936.3,295,936.3,292.1z"/>
	<path class="st1" d="M887.2,292.1c0-2.9-3.2-4.2-5.7-4.2c-2.4,0-5.7,1.4-5.7,4.3c0,2.9,3.2,4.2,5.7,4.2
		C883.9,296.3,887.2,295,887.2,292.1z"/>
	<path class="st1" d="M838.1,292.1c0-2.9-3.2-4.2-5.7-4.2c-2.4,0-5.7,1.4-5.7,4.3c0,2.9,3.2,4.2,5.7,4.2
		C834.9,296.3,838.1,295,838.1,292.1z"/>
	<path class="st1" d="M789,292.1c0-2.9-3.2-4.2-5.7-4.2c-2.4,0-5.7,1.4-5.7,4.3c0,2.9,3.2,4.2,5.7,4.2
		C785.8,296.3,789,295,789,292.1z"/>
	<path class="st1" d="M739.9,292.1c0-2.9-3.2-4.2-5.7-4.2c-2.4,0-5.7,1.4-5.7,4.3c0,2.9,3.2,4.2,5.7,4.2
		C736.7,296.3,739.9,295,739.9,292.1z"/>
	<path class="st1" d="M690.8,292.1c0-2.9-3.2-4.2-5.7-4.2c-2.4,0-5.7,1.4-5.7,4.3c0,2.9,3.2,4.2,5.7,4.2
		C687.6,296.3,690.8,295,690.8,292.1z"/>
	<path class="st1" d="M690.8,267.2c0,2.9-3.2,4.2-5.7,4.2c-2.4,0-5.7-1.4-5.7-4.3c0-2.9,3.2-4.2,5.7-4.2
		C687.6,262.9,690.8,264.2,690.8,267.2z"/>
	<path class="st1" d="M739.9,267.2c0,2.9-3.2,4.2-5.7,4.2c-2.4,0-5.7-1.4-5.7-4.3c0-2.9,3.2-4.2,5.7-4.2
		C736.7,262.9,739.9,264.2,739.9,267.2z"/>
	<path class="st1" d="M789,267.2c0,2.9-3.2,4.2-5.7,4.2c-2.4,0-5.7-1.4-5.7-4.3c0-2.9,3.2-4.2,5.7-4.2
		C785.8,262.9,789,264.2,789,267.2z"/>
	<path class="st1" d="M838.1,267.2c0,2.9-3.2,4.2-5.7,4.2c-2.4,0-5.7-1.4-5.7-4.3c0-2.9,3.2-4.2,5.7-4.2
		C834.9,262.9,838.1,264.2,838.1,267.2z"/>
	<path class="st1" d="M887.2,267.2c0,2.9-3.2,4.2-5.7,4.2c-2.4,0-5.7-1.4-5.7-4.3c0-2.9,3.2-4.2,5.7-4.2
		C883.9,262.9,887.2,264.2,887.2,267.2z"/>
	<path class="st1" d="M936.3,267.2c0,2.9-3.2,4.2-5.7,4.2c-2.4,0-5.7-1.4-5.7-4.3c0-2.9,3.2-4.2,5.7-4.2
		C933,262.9,936.3,264.2,936.3,267.2z"/>
	<path class="st1" d="M960.9,279.7c0-2.9-3.2-4.2-5.7-4.2c-2.4,0-5.7,1.4-5.7,4.3c0,2.9,3.2,4.2,5.7,4.2
		C957.6,283.9,960.8,282.6,960.9,279.7z"/>
	<path class="st1" d="M911.8,279.7c0-2.9-3.2-4.2-5.7-4.2c-2.4,0-5.7,1.4-5.7,4.3c0,2.9,3.2,4.2,5.7,4.2
		C908.5,283.9,911.7,282.6,911.8,279.7z"/>
	<path class="st1" d="M862.7,279.7c0-2.9-3.2-4.2-5.7-4.2c-2.4,0-5.7,1.4-5.7,4.3c0,2.9,3.2,4.2,5.7,4.2
		C859.4,283.9,862.6,282.6,862.7,279.7z"/>
	<path class="st1" d="M813.6,279.7c0-2.9-3.2-4.2-5.7-4.2c-2.4,0-5.7,1.4-5.7,4.3c0,2.9,3.2,4.2,5.7,4.2
		C810.3,283.9,813.5,282.6,813.6,279.7z"/>
	<path class="st1" d="M764.5,279.7c0-2.9-3.2-4.2-5.7-4.2c-2.4,0-5.7,1.4-5.7,4.3c0,2.9,3.2,4.2,5.7,4.2
		C761.2,283.9,764.5,282.6,764.5,279.7z"/>
	<path class="st1" d="M715.4,279.7c0-2.9-3.2-4.2-5.7-4.2c-2.4,0-5.7,1.4-5.7,4.3c0,2.9,3.2,4.2,5.7,4.2
		C712.1,283.9,715.4,282.6,715.4,279.7z"/>
	<path class="st1" d="M666.3,279.7c0-2.9-3.2-4.2-5.7-4.2c-2.4,0-5.7,1.4-5.7,4.3c0,2.9,3.2,4.2,5.7,4.2
		C663,283.9,666.3,282.6,666.3,279.7z"/>
	<path class="st1" d="M159,294.1c-1.2,0-2.1,0.4-2.9,1.3c-2.7,2.7-7.3,0.8-7.3-3c0-3.8,4.6-5.7,7.3-3c0.9,0.9,1.9,1.3,3.2,1.3
		c1,0,1.9-0.1,2.8-0.2c1-0.1,2-0.3,3.1-0.6c1-0.3,2-0.6,3-0.9c0.5-0.2,0.9-0.4,1.4-0.6c0.5-0.2,0.9-0.4,1.3-0.7
		c0.4-0.2,0.8-0.5,1.2-0.8c0.4-0.3,0.7-0.5,1.1-0.8c0.3-0.3,0.7-0.6,1-0.9c0.3-0.3,0.6-0.6,0.8-0.9c0.2-0.3,0.4-0.6,0.6-1
		c0.2-0.3,0.3-0.6,0.5-1c0.1-0.3,0.2-0.6,0.3-1c0.1-0.4,0.1-0.7,0.2-1.1c0-0.3,0-0.6,0-0.9c0-0.3-0.1-0.6-0.1-0.9
		c-0.1-0.6-0.3-1.2-0.6-1.7c-0.3-0.6-0.7-1.2-1.1-1.7c-0.2-0.3-0.5-0.6-0.8-0.9c-0.3-0.3-0.6-0.6-0.9-0.8c-0.3-0.3-0.7-0.6-1.1-0.8
		c-0.4-0.3-0.8-0.5-1.2-0.8c-0.9-0.5-1.9-1-2.9-1.3c-1.1-0.4-2.2-0.7-3.3-1c-1.2-0.3-2.3-0.5-3.5-0.6c-0.6-0.1-1.2-0.1-1.8-0.1
		c-1.3,0-2.3,0.3-3.2,1.3c-2.7,2.7-7.3,0.8-7.3-3c0-3.8,4.6-5.7,7.3-3c0.9,0.9,1.7,1.2,2.9,1.3c0.3,0,0.5,0,0.8,0
		c1.4,0.1,2.8,0.2,4.2,0.5c1.4,0.3,2.7,0.6,4.1,1c0.6,0.2,1.3,0.5,1.9,0.7c0.6,0.3,1.2,0.5,1.8,0.8c0.6,0.3,1.1,0.6,1.6,1
		c0.5,0.3,1,0.7,1.5,1c0.4,0.4,0.9,0.7,1.3,1.1c0.4,0.4,0.8,0.8,1.1,1.2c0.6,0.8,1.2,1.6,1.6,2.5c0.4,0.9,0.7,1.8,0.9,2.7
		c0.2,1,0.2,2,0.1,3c-0.1,1-0.4,2.1-0.9,3c-0.2,0.5-0.5,1-0.8,1.5c-0.3,0.5-0.6,0.9-1,1.4c-0.4,0.5-0.8,0.9-1.2,1.3
		c-0.4,0.4-0.9,0.8-1.4,1.2c-0.5,0.4-1,0.7-1.5,1c-0.5,0.3-1.1,0.6-1.6,0.9c-1.1,0.6-2.3,1.1-3.5,1.5c-1.2,0.4-2.4,0.7-3.6,0.9
		c-1.3,0.2-2.5,0.4-3.8,0.5C160.1,294,159.6,294,159,294.1z"/>
	<path class="st1" d="M217.2,252.1c-1.3-1.2-1.5-2.9-0.4-4.2c1.2-1.4,2.5-1.8,4.2-1.8c1.8,0,3,0.3,4.2,1.8c1.1,1.4,0.9,3.1-0.4,4.2
		c-1.5,1.4-2.2,2.9-2.2,5c0,15,0,30,0,45c0,2.1,0.6,3.6,2.2,5c1.3,1.2,1.5,2.9,0.4,4.2c-1.2,1.4-2.5,1.8-4.2,1.8
		c-1.8,0-3-0.3-4.2-1.8c-1.1-1.4-0.9-3.1,0.4-4.2c1.5-1.4,2.2-2.9,2.2-5c0-15,0-30,0-45C219.4,255,218.7,253.6,217.2,252.1z"/>
	<path class="st1" d="M115.2,252.1c-1.3-1.2-1.5-2.9-0.4-4.2c1.2-1.4,2.5-1.8,4.2-1.8c1.8,0,3,0.3,4.2,1.8c1.1,1.4,0.9,3.1-0.4,4.2
		c-1.5,1.4-2.2,2.9-2.2,5c0,15,0,30,0,45c0,2.1,0.6,3.6,2.2,5c1.3,1.2,1.5,2.9,0.4,4.2c-1.2,1.4-2.5,1.8-4.2,1.8
		c-1.8,0-3-0.3-4.2-1.8c-1.1-1.4-0.9-3.1,0.4-4.2c1.5-1.4,2.2-2.9,2.2-5c0-15,0-30,0-45C117.3,255,116.7,253.6,115.2,252.1z"/>
	<path class="st1" d="M256.9,250.7c-1.3-1.2-1.5-2.9-0.4-4.2c1.2-1.4,2.5-1.8,4.2-1.8c1.8,0,3,0.3,4.2,1.8c1.1,1.4,0.9,3.1-0.4,4.2
		c-1.5,1.4-2.2,2.9-2.2,5c0,15,0,30,0,45c0,2.1,0.6,3.6,2.2,5c1.3,1.2,1.5,2.9,0.4,4.2c-1.2,1.4-2.5,1.8-4.2,1.8
		c-1.8,0-3-0.3-4.2-1.8c-1.1-1.4-0.9-3.1,0.4-4.2c1.5-1.4,2.2-2.9,2.2-5c0-15,0-30,0-45C259.1,253.6,258.4,252.2,256.9,250.7z"/>
</g>
<g>
	<path class="st0" d="M1025.7,158.3c-62.1,0-124.1,0-186.2,0c-7.1,0-13.6,3.8-17.2,9.9c-1.8,3.1-3.6,6.2-5.4,9.4
		c-1.5,2.6-2.3,5.2-2.6,8.2c0,0.2,0,0.4,0,0.6"/>
	<path class="st0" d="M1579.5,186.4c0-0.2,0-0.4,0-0.6c-0.3-3-1.1-5.6-2.6-8.2c-1.8-3.1-3.6-6.2-5.4-9.4c-3.5-6.1-10.1-9.9-17.2-9.9
		c-175.5,0-350.9,0-526.4,0"/>
	<path class="st0" d="M1368.1,216.7c62.1,0,124.1,0,186.2,0c7.1,0,13.6-3.8,17.2-9.9c1.8-3.1,3.6-6.2,5.4-9.4
		c1.5-2.6,2.3-5.2,2.6-8.2c0-0.2,0-0.4,0-0.6"/>
	<path class="st0" d="M814.2,188.7c0,0.2,0,0.4,0,0.6c0.3,3,1.1,5.6,2.6,8.2c1.8,3.1,3.6,6.2,5.4,9.4c3.5,6.1,10.1,9.9,17.2,9.9
		c175.5,0,350.9,0,526.4,0"/>
	<path class="st1" d="M1132.7,197.9c-1.1-1-1.9-2.7-1.9-4.2c0-4.2,0-8.3,0-12.5c0-1.5,0.8-3.2,1.9-4.2c1.3-1.2,1.5-2.9,0.4-4.2
		c-1.2-1.5-2.5-1.8-4.2-1.8s-3.1,0.3-4.2,1.8c-1.1,1.4-0.9,3.1,0.4,4.2c1.1,1,1.9,2.7,1.9,4.2c0,4.2,0,8.3,0,12.5
		c0,1.5-0.8,3.2-1.9,4.2c-1.3,1.2-1.5,2.9-0.4,4.2c1.2,1.5,2.5,1.8,4.2,1.8s3.1-0.3,4.2-1.8C1134.2,200.8,1134,199.1,1132.7,197.9z"
		/>
	<path class="st1" d="M1110,197.9c-1.1-1-1.9-2.7-1.9-4.2c0-4.2,0-8.3,0-12.5c0-1.5,0.8-3.2,1.9-4.2c1.3-1.2,1.5-2.9,0.4-4.2
		c-1.2-1.5-2.5-1.8-4.2-1.8c-1.8,0-3.1,0.3-4.2,1.8c-1.1,1.4-0.9,3.1,0.4,4.2c1.1,1,1.9,2.7,1.9,4.2c0,4.2,0,8.3,0,12.5
		c0,1.5-0.8,3.2-1.9,4.2c-1.3,1.2-1.5,2.9-0.4,4.2c1.2,1.5,2.5,1.8,4.2,1.8s3.1-0.3,4.2-1.8C1111.5,200.8,1111.3,199.1,1110,197.9z"
		/>
	<path class="st1" d="M1087.3,197.9c-1.1-1-1.9-2.7-1.9-4.2c0-4.2,0-8.3,0-12.5c0-1.5,0.8-3.2,1.9-4.2c1.3-1.2,1.5-2.9,0.4-4.2
		c-1.2-1.5-2.5-1.8-4.2-1.8c-1.8,0-3.1,0.3-4.2,1.8c-1.1,1.4-0.9,3.1,0.4,4.2c1.1,1,1.9,2.7,1.9,4.2c0,4.2,0,8.3,0,12.5
		c0,1.5-0.8,3.2-1.9,4.2c-1.3,1.2-1.5,2.9-0.4,4.2c1.2,1.5,2.5,1.8,4.2,1.8c1.8,0,3.1-0.3,4.2-1.8
		C1088.9,200.8,1088.6,199.1,1087.3,197.9z"/>
	<path class="st1" d="M1064.7,197.9c-1.1-1-1.9-2.7-1.9-4.2c0-4.2,0-8.3,0-12.5c0-1.5,0.8-3.2,1.9-4.2c1.3-1.2,1.5-2.9,0.4-4.2
		c-1.2-1.5-2.5-1.8-4.2-1.8s-3.1,0.3-4.2,1.8c-1.1,1.4-0.9,3.1,0.4,4.2c1.1,1,1.9,2.7,1.9,4.2c0,4.2,0,8.3,0,12.5
		c0,1.5-0.8,3.2-1.9,4.2c-1.3,1.2-1.5,2.9-0.4,4.2c1.2,1.5,2.5,1.8,4.2,1.8s3.1-0.3,4.2-1.8C1066.2,200.8,1065.9,199.1,1064.7,197.9
		z"/>
	<path class="st1" d="M1042,197.9c-1.1-1-1.9-2.7-1.9-4.2c0-4.2,0-8.3,0-12.5c0-1.5,0.8-3.2,1.9-4.2c1.3-1.2,1.5-2.9,0.4-4.2
		c-1.2-1.5-2.5-1.8-4.2-1.8c-1.8,0-3.1,0.3-4.2,1.8c-1.1,1.4-0.9,3.1,0.4,4.2c1.1,1,1.9,2.7,1.9,4.2c0,4.2,0,8.3,0,12.5
		c0,1.5-0.8,3.2-1.9,4.2c-1.3,1.2-1.5,2.9-0.4,4.2c1.2,1.5,2.5,1.8,4.2,1.8c1.8,0,3.1-0.3,4.2-1.8
		C1043.5,200.8,1043.3,199.1,1042,197.9z"/>
	<path class="st1" d="M1019.3,197.9c-1.1-1-1.9-2.7-1.9-4.2c0-4.2,0-8.3,0-12.5c0-1.5,0.8-3.2,1.9-4.2c1.3-1.2,1.5-2.9,0.4-4.2
		c-1.2-1.5-2.5-1.8-4.2-1.8c-1.8,0-3.1,0.3-4.2,1.8c-1.1,1.4-0.9,3.1,0.4,4.2c1.1,1,1.9,2.7,1.9,4.2c0,4.2,0,8.3,0,12.5
		c0,1.5-0.8,3.2-1.9,4.2c-1.3,1.2-1.5,2.9-0.4,4.2c1.2,1.5,2.5,1.8,4.2,1.8c1.8,0,3.1-0.3,4.2-1.8
		C1020.8,200.8,1020.6,199.1,1019.3,197.9z"/>
	<path class="st1" d="M996.6,197.9c-1.1-1-1.9-2.7-1.9-4.2c0-4.2,0-8.3,0-12.5c0-1.5,0.8-3.2,1.9-4.2c1.3-1.2,1.5-2.9,0.4-4.2
		c-1.2-1.5-2.5-1.8-4.2-1.8c-1.8,0-3.1,0.3-4.2,1.8c-1.1,1.4-0.9,3.1,0.4,4.2c1.1,1,1.9,2.7,1.9,4.2c0,4.2,0,8.3,0,12.5
		c0,1.5-0.8,3.2-1.9,4.2c-1.3,1.2-1.5,2.9-0.4,4.2c1.2,1.5,2.5,1.8,4.2,1.8c1.8,0,3.1-0.3,4.2-1.8
		C998.1,200.8,997.9,199.1,996.6,197.9z"/>
	<path class="st1" d="M973.9,197.9c-1.1-1-1.9-2.7-1.9-4.2c0-4.2,0-8.3,0-12.5c0-1.5,0.8-3.2,1.9-4.2c1.3-1.2,1.5-2.9,0.4-4.2
		c-1.2-1.5-2.5-1.8-4.2-1.8c-1.8,0-3.1,0.3-4.2,1.8c-1.1,1.4-0.9,3.1,0.4,4.2c1.1,1,1.9,2.7,1.9,4.2c0,4.2,0,8.3,0,12.5
		c0,1.5-0.8,3.2-1.9,4.2c-1.3,1.2-1.5,2.9-0.4,4.2c1.2,1.5,2.5,1.8,4.2,1.8c1.8,0,3.1-0.3,4.2-1.8
		C975.5,200.8,975.2,199.1,973.9,197.9z"/>
	<path class="st1" d="M951.3,197.9c-1.1-1-1.9-2.7-1.9-4.2c0-4.2,0-8.3,0-12.5c0-1.5,0.8-3.2,1.9-4.2c1.3-1.2,1.5-2.9,0.4-4.2
		c-1.2-1.5-2.5-1.8-4.2-1.8c-1.8,0-3.1,0.3-4.2,1.8c-1.1,1.4-0.9,3.1,0.4,4.2c1.1,1,1.9,2.7,1.9,4.2c0,4.2,0,8.3,0,12.5
		c0,1.5-0.8,3.2-1.9,4.2c-1.3,1.2-1.5,2.9-0.4,4.2c1.2,1.5,2.5,1.8,4.2,1.8c1.8,0,3.1-0.3,4.2-1.8
		C952.8,200.8,952.5,199.1,951.3,197.9z"/>
	<path class="st1" d="M928.6,197.9c-1.1-1-1.9-2.7-1.9-4.2c0-4.2,0-8.3,0-12.5c0-1.5,0.8-3.2,1.9-4.2c1.3-1.2,1.5-2.9,0.4-4.2
		c-1.2-1.5-2.5-1.8-4.2-1.8c-1.8,0-3.1,0.3-4.2,1.8c-1.1,1.4-0.9,3.1,0.4,4.2c1.1,1,1.9,2.7,1.9,4.2c0,4.2,0,8.3,0,12.5
		c0,1.5-0.8,3.2-1.9,4.2c-1.3,1.2-1.5,2.9-0.4,4.2c1.2,1.5,2.5,1.8,4.2,1.8c1.8,0,3.1-0.3,4.2-1.8
		C930.1,200.8,929.9,199.1,928.6,197.9z"/>
	<path class="st1" d="M905.9,197.9c-1.1-1-1.9-2.7-1.9-4.2c0-4.2,0-8.3,0-12.5c0-1.5,0.8-3.2,1.9-4.2c1.3-1.2,1.5-2.9,0.4-4.2
		c-1.2-1.5-2.5-1.8-4.2-1.8s-3.1,0.3-4.2,1.8c-1.1,1.4-0.9,3.1,0.4,4.2c1.1,1,1.9,2.7,1.9,4.2c0,4.2,0,8.3,0,12.5
		c0,1.5-0.8,3.2-1.9,4.2c-1.3,1.2-1.5,2.9-0.4,4.2c1.2,1.5,2.5,1.8,4.2,1.8c1.8,0,3.1-0.3,4.2-1.8
		C907.4,200.8,907.2,199.1,905.9,197.9z"/>
	<path class="st1" d="M1487.8,197.9c1.1-1,1.9-2.7,1.9-4.2c0-4.2,0-8.3,0-12.5c0-1.5-0.8-3.2-1.9-4.2c-1.3-1.2-1.5-2.9-0.4-4.2
		c1.2-1.5,2.5-1.8,4.2-1.8s3.1,0.3,4.2,1.8c1.1,1.4,0.9,3.1-0.4,4.2c-1.1,1-1.9,2.7-1.9,4.2c0,4.2,0,8.3,0,12.5
		c0,1.5,0.8,3.2,1.9,4.2c1.3,1.2,1.5,2.9,0.4,4.2c-1.2,1.5-2.5,1.8-4.2,1.8s-3.1-0.3-4.2-1.8
		C1486.3,200.8,1486.6,199.1,1487.8,197.9z"/>
	<path class="st1" d="M1465.2,197.9c1.1-1,1.9-2.7,1.9-4.2c0-4.2,0-8.3,0-12.5c0-1.5-0.8-3.2-1.9-4.2c-1.3-1.2-1.5-2.9-0.4-4.2
		c1.2-1.5,2.5-1.8,4.2-1.8c1.8,0,3.1,0.3,4.2,1.8c1.1,1.4,0.9,3.1-0.4,4.2c-1.1,1-1.9,2.7-1.9,4.2c0,4.2,0,8.3,0,12.5
		c0,1.5,0.8,3.2,1.9,4.2c1.3,1.2,1.5,2.9,0.4,4.2c-1.2,1.5-2.5,1.8-4.2,1.8c-1.8,0-3.1-0.3-4.2-1.8
		C1463.6,200.8,1463.9,199.1,1465.2,197.9z"/>
	<path class="st1" d="M1442.5,197.9c1.1-1,1.9-2.7,1.9-4.2c0-4.2,0-8.3,0-12.5c0-1.5-0.8-3.2-1.9-4.2c-1.3-1.2-1.5-2.9-0.4-4.2
		c1.2-1.5,2.5-1.8,4.2-1.8c1.8,0,3.1,0.3,4.2,1.8c1.1,1.4,0.9,3.1-0.4,4.2c-1.1,1-1.9,2.7-1.9,4.2c0,4.2,0,8.3,0,12.5
		c0,1.5,0.8,3.2,1.9,4.2c1.3,1.2,1.5,2.9,0.4,4.2c-1.2,1.5-2.5,1.8-4.2,1.8c-1.8,0-3.1-0.3-4.2-1.8
		C1441,200.8,1441.2,199.1,1442.5,197.9z"/>
	<path class="st1" d="M1419.8,197.9c1.1-1,1.9-2.7,1.9-4.2c0-4.2,0-8.3,0-12.5c0-1.5-0.8-3.2-1.9-4.2c-1.3-1.2-1.5-2.9-0.4-4.2
		c1.2-1.5,2.5-1.8,4.2-1.8c1.8,0,3.1,0.3,4.2,1.8c1.1,1.4,0.9,3.1-0.4,4.2c-1.1,1-1.9,2.7-1.9,4.2c0,4.2,0,8.3,0,12.5
		c0,1.5,0.8,3.2,1.9,4.2c1.3,1.2,1.5,2.9,0.4,4.2c-1.2,1.5-2.5,1.8-4.2,1.8c-1.8,0-3.1-0.3-4.2-1.8
		C1418.3,200.8,1418.5,199.1,1419.8,197.9z"/>
	<path class="st1" d="M1397.1,197.9c1.1-1,1.9-2.7,1.9-4.2c0-4.2,0-8.3,0-12.5c0-1.5-0.8-3.2-1.9-4.2c-1.3-1.2-1.5-2.9-0.4-4.2
		c1.2-1.5,2.5-1.8,4.2-1.8c1.8,0,3.1,0.3,4.2,1.8c1.1,1.4,0.9,3.1-0.4,4.2c-1.1,1-1.9,2.7-1.9,4.2c0,4.2,0,8.3,0,12.5
		c0,1.5,0.8,3.2,1.9,4.2c1.3,1.2,1.5,2.9,0.4,4.2c-1.2,1.5-2.5,1.8-4.2,1.8c-1.8,0-3.1-0.3-4.2-1.8
		C1395.6,200.8,1395.8,199.1,1397.1,197.9z"/>
	<path class="st1" d="M1374.4,197.9c1.1-1,1.9-2.7,1.9-4.2c0-4.2,0-8.3,0-12.5c0-1.5-0.8-3.2-1.9-4.2c-1.3-1.2-1.5-2.9-0.4-4.2
		c1.2-1.5,2.5-1.8,4.2-1.8s3.1,0.3,4.2,1.8c1.1,1.4,0.9,3.1-0.4,4.2c-1.1,1-1.9,2.7-1.9,4.2c0,4.2,0,8.3,0,12.5
		c0,1.5,0.8,3.2,1.9,4.2c1.3,1.2,1.5,2.9,0.4,4.2c-1.2,1.5-2.5,1.8-4.2,1.8s-3.1-0.3-4.2-1.8
		C1372.9,200.8,1373.2,199.1,1374.4,197.9z"/>
	<path class="st1" d="M1351.8,197.9c1.1-1,1.9-2.7,1.9-4.2c0-4.2,0-8.3,0-12.5c0-1.5-0.8-3.2-1.9-4.2c-1.3-1.2-1.5-2.9-0.4-4.2
		c1.2-1.5,2.5-1.8,4.2-1.8c1.8,0,3.1,0.3,4.2,1.8c1.1,1.4,0.9,3.1-0.4,4.2c-1.1,1-1.9,2.7-1.9,4.2c0,4.2,0,8.3,0,12.5
		c0,1.5,0.8,3.2,1.9,4.2c1.3,1.2,1.5,2.9,0.4,4.2c-1.2,1.5-2.5,1.8-4.2,1.8c-1.8,0-3.1-0.3-4.2-1.8
		C1350.2,200.8,1350.5,199.1,1351.8,197.9z"/>
	<path class="st1" d="M1329.1,197.9c1.1-1,1.9-2.7,1.9-4.2c0-4.2,0-8.3,0-12.5c0-1.5-0.8-3.2-1.9-4.2c-1.3-1.2-1.5-2.9-0.4-4.2
		c1.2-1.5,2.5-1.8,4.2-1.8s3.1,0.3,4.2,1.8c1.1,1.4,0.9,3.1-0.4,4.2c-1.1,1-1.9,2.7-1.9,4.2c0,4.2,0,8.3,0,12.5
		c0,1.5,0.8,3.2,1.9,4.2c1.3,1.2,1.5,2.9,0.4,4.2c-1.2,1.5-2.5,1.8-4.2,1.8s-3.1-0.3-4.2-1.8
		C1327.6,200.8,1327.8,199.1,1329.1,197.9z"/>
	<path class="st1" d="M1306.4,197.9c1.1-1,1.9-2.7,1.9-4.2c0-4.2,0-8.3,0-12.5c0-1.5-0.8-3.2-1.9-4.2c-1.3-1.2-1.5-2.9-0.4-4.2
		c1.2-1.5,2.5-1.8,4.2-1.8c1.8,0,3.1,0.3,4.2,1.8c1.1,1.4,0.9,3.1-0.4,4.2c-1.1,1-1.9,2.7-1.9,4.2c0,4.2,0,8.3,0,12.5
		c0,1.5,0.8,3.2,1.9,4.2c1.3,1.2,1.5,2.9,0.4,4.2c-1.2,1.5-2.5,1.8-4.2,1.8c-1.8,0-3.1-0.3-4.2-1.8
		C1304.9,200.8,1305.1,199.1,1306.4,197.9z"/>
	<path class="st1" d="M1283.7,197.9c1.1-1,1.9-2.7,1.9-4.2c0-4.2,0-8.3,0-12.5c0-1.5-0.8-3.2-1.9-4.2c-1.3-1.2-1.5-2.9-0.4-4.2
		c1.2-1.5,2.5-1.8,4.2-1.8s3.1,0.3,4.2,1.8c1.1,1.4,0.9,3.1-0.4,4.2c-1.1,1-1.9,2.7-1.9,4.2c0,4.2,0,8.3,0,12.5
		c0,1.5,0.8,3.2,1.9,4.2c1.3,1.2,1.5,2.9,0.4,4.2c-1.2,1.5-2.5,1.8-4.2,1.8s-3.1-0.3-4.2-1.8
		C1282.2,200.8,1282.5,199.1,1283.7,197.9z"/>
	<path class="st1" d="M1261.1,197.9c1.1-1,1.9-2.7,1.9-4.2c0-4.2,0-8.3,0-12.5c0-1.5-0.8-3.2-1.9-4.2c-1.3-1.2-1.5-2.9-0.4-4.2
		c1.2-1.5,2.5-1.8,4.2-1.8c1.8,0,3.1,0.3,4.2,1.8c1.1,1.4,0.9,3.1-0.4,4.2c-1.1,1-1.9,2.7-1.9,4.2c0,4.2,0,8.3,0,12.5
		c0,1.5,0.8,3.2,1.9,4.2c1.3,1.2,1.5,2.9,0.4,4.2c-1.2,1.5-2.5,1.8-4.2,1.8c-1.8,0-3.1-0.3-4.2-1.8
		C1259.5,200.8,1259.8,199.1,1261.1,197.9z"/>
</g>
<g>
	<path class="st0" d="M247.6,158.3c-62.1,0-124.1,0-186.2,0c-7.1,0-13.6,3.8-17.2,9.9c-1.8,3.1-3.6,6.2-5.4,9.4
		c-1.5,2.6-2.3,5.2-2.6,8.2c0,0.2,0,0.4,0,0.6"/>
	<path class="st0" d="M801.5,186.4c0-0.2,0-0.4,0-0.6c-0.3-3-1.1-5.6-2.6-8.2c-1.8-3.1-3.6-6.2-5.4-9.4c-3.5-6.1-10.1-9.9-17.2-9.9
		c-175.5,0-350.9,0-526.4,0"/>
	<path class="st0" d="M590,216.7c62.1,0,124.1,0,186.2,0c7.1,0,13.6-3.8,17.2-9.9c1.8-3.1,3.6-6.2,5.4-9.4c1.5-2.6,2.3-5.2,2.6-8.2
		c0-0.2,0-0.4,0-0.6"/>
	<path class="st0" d="M36.2,188.7c0,0.2,0,0.4,0,0.6c0.3,3,1.1,5.6,2.6,8.2c1.8,3.1,3.6,6.2,5.4,9.4c3.5,6.1,10.1,9.9,17.2,9.9
		c175.5,0,350.9,0,526.4,0"/>
	<path class="st1" d="M354.6,197.9c-1.1-1-1.9-2.7-1.9-4.2c0-4.2,0-8.3,0-12.5c0-1.5,0.8-3.2,1.9-4.2c1.3-1.2,1.5-2.9,0.4-4.2
		c-1.2-1.5-2.5-1.8-4.2-1.8c-1.8,0-3.1,0.3-4.2,1.8c-1.1,1.4-0.9,3.1,0.4,4.2c1.1,1,1.9,2.7,1.9,4.2c0,4.2,0,8.3,0,12.5
		c0,1.5-0.8,3.2-1.9,4.2c-1.3,1.2-1.5,2.9-0.4,4.2c1.2,1.5,2.5,1.8,4.2,1.8c1.8,0,3.1-0.3,4.2-1.8
		C356.2,200.8,355.9,199.1,354.6,197.9z"/>
	<path class="st1" d="M332,197.9c-1.1-1-1.9-2.7-1.9-4.2c0-4.2,0-8.3,0-12.5c0-1.5,0.8-3.2,1.9-4.2c1.3-1.2,1.5-2.9,0.4-4.2
		c-1.2-1.5-2.5-1.8-4.2-1.8c-1.8,0-3.1,0.3-4.2,1.8c-1.1,1.4-0.9,3.1,0.4,4.2c1.1,1,1.9,2.7,1.9,4.2c0,4.2,0,8.3,0,12.5
		c0,1.5-0.8,3.2-1.9,4.2c-1.3,1.2-1.5,2.9-0.4,4.2c1.2,1.5,2.5,1.8,4.2,1.8c1.8,0,3.1-0.3,4.2-1.8
		C333.5,200.8,333.2,199.1,332,197.9z"/>
	<path class="st1" d="M309.3,197.9c-1.1-1-1.9-2.7-1.9-4.2c0-4.2,0-8.3,0-12.5c0-1.5,0.8-3.2,1.9-4.2c1.3-1.2,1.5-2.9,0.4-4.2
		c-1.2-1.5-2.5-1.8-4.2-1.8c-1.8,0-3.1,0.3-4.2,1.8c-1.1,1.4-0.9,3.1,0.4,4.2c1.1,1,1.9,2.7,1.9,4.2c0,4.2,0,8.3,0,12.5
		c0,1.5-0.8,3.2-1.9,4.2c-1.3,1.2-1.5,2.9-0.4,4.2c1.2,1.5,2.5,1.8,4.2,1.8c1.8,0,3.1-0.3,4.2-1.8
		C310.8,200.8,310.6,199.1,309.3,197.9z"/>
	<path class="st1" d="M286.6,197.9c-1.1-1-1.9-2.7-1.9-4.2c0-4.2,0-8.3,0-12.5c0-1.5,0.8-3.2,1.9-4.2c1.3-1.2,1.5-2.9,0.4-4.2
		c-1.2-1.5-2.5-1.8-4.2-1.8c-1.8,0-3.1,0.3-4.2,1.8c-1.1,1.4-0.9,3.1,0.4,4.2c1.1,1,1.9,2.7,1.9,4.2c0,4.2,0,8.3,0,12.5
		c0,1.5-0.8,3.2-1.9,4.2c-1.3,1.2-1.5,2.9-0.4,4.2c1.2,1.5,2.5,1.8,4.2,1.8c1.8,0,3.1-0.3,4.2-1.8
		C288.1,200.8,287.9,199.1,286.6,197.9z"/>
	<path class="st1" d="M263.9,197.9c-1.1-1-1.9-2.7-1.9-4.2c0-4.2,0-8.3,0-12.5c0-1.5,0.8-3.2,1.9-4.2c1.3-1.2,1.5-2.9,0.4-4.2
		c-1.2-1.5-2.5-1.8-4.2-1.8c-1.8,0-3.1,0.3-4.2,1.8c-1.1,1.4-0.9,3.1,0.4,4.2c1.1,1,1.9,2.7,1.9,4.2c0,4.2,0,8.3,0,12.5
		c0,1.5-0.8,3.2-1.9,4.2c-1.3,1.2-1.5,2.9-0.4,4.2c1.2,1.5,2.5,1.8,4.2,1.8c1.8,0,3.1-0.3,4.2-1.8
		C265.5,200.8,265.2,199.1,263.9,197.9z"/>
	<path class="st1" d="M241.3,197.9c-1.1-1-1.9-2.7-1.9-4.2c0-4.2,0-8.3,0-12.5c0-1.5,0.8-3.2,1.9-4.2c1.3-1.2,1.5-2.9,0.4-4.2
		c-1.2-1.5-2.5-1.8-4.2-1.8c-1.8,0-3.1,0.3-4.2,1.8c-1.1,1.4-0.9,3.1,0.4,4.2c1.1,1,1.9,2.7,1.9,4.2c0,4.2,0,8.3,0,12.5
		c0,1.5-0.8,3.2-1.9,4.2c-1.3,1.2-1.5,2.9-0.4,4.2c1.2,1.5,2.5,1.8,4.2,1.8c1.8,0,3.1-0.3,4.2-1.8
		C242.8,200.8,242.5,199.1,241.3,197.9z"/>
	<path class="st1" d="M218.6,197.9c-1.1-1-1.9-2.7-1.9-4.2c0-4.2,0-8.3,0-12.5c0-1.5,0.8-3.2,1.9-4.2c1.3-1.2,1.5-2.9,0.4-4.2
		c-1.2-1.5-2.5-1.8-4.2-1.8c-1.8,0-3.1,0.3-4.2,1.8c-1.1,1.4-0.9,3.1,0.4,4.2c1.1,1,1.9,2.7,1.9,4.2c0,4.2,0,8.3,0,12.5
		c0,1.5-0.8,3.2-1.9,4.2c-1.3,1.2-1.5,2.9-0.4,4.2c1.2,1.5,2.5,1.8,4.2,1.8c1.8,0,3.1-0.3,4.2-1.8
		C220.1,200.8,219.9,199.1,218.6,197.9z"/>
	<path class="st1" d="M195.9,197.9c-1.1-1-1.9-2.7-1.9-4.2c0-4.2,0-8.3,0-12.5c0-1.5,0.8-3.2,1.9-4.2c1.3-1.2,1.5-2.9,0.4-4.2
		c-1.2-1.5-2.5-1.8-4.2-1.8c-1.8,0-3.1,0.3-4.2,1.8c-1.1,1.4-0.9,3.1,0.4,4.2c1.1,1,1.9,2.7,1.9,4.2c0,4.2,0,8.3,0,12.5
		c0,1.5-0.8,3.2-1.9,4.2c-1.3,1.2-1.5,2.9-0.4,4.2c1.2,1.5,2.5,1.8,4.2,1.8c1.8,0,3.1-0.3,4.2-1.8
		C197.4,200.8,197.2,199.1,195.9,197.9z"/>
	<path class="st1" d="M173.2,197.9c-1.1-1-1.9-2.7-1.9-4.2c0-4.2,0-8.3,0-12.5c0-1.5,0.8-3.2,1.9-4.2c1.3-1.2,1.5-2.9,0.4-4.2
		c-1.2-1.5-2.5-1.8-4.2-1.8s-3.1,0.3-4.2,1.8c-1.1,1.4-0.9,3.1,0.4,4.2c1.1,1,1.9,2.7,1.9,4.2c0,4.2,0,8.3,0,12.5
		c0,1.5-0.8,3.2-1.9,4.2c-1.3,1.2-1.5,2.9-0.4,4.2c1.2,1.5,2.5,1.8,4.2,1.8s3.1-0.3,4.2-1.8C174.7,200.8,174.5,199.1,173.2,197.9z"
		/>
	<path class="st1" d="M150.5,197.9c-1.1-1-1.9-2.7-1.9-4.2c0-4.2,0-8.3,0-12.5c0-1.5,0.8-3.2,1.9-4.2c1.3-1.2,1.5-2.9,0.4-4.2
		c-1.2-1.5-2.5-1.8-4.2-1.8c-1.8,0-3.1,0.3-4.2,1.8c-1.1,1.4-0.9,3.1,0.4,4.2c1.1,1,1.9,2.7,1.9,4.2c0,4.2,0,8.3,0,12.5
		c0,1.5-0.8,3.2-1.9,4.2c-1.3,1.2-1.5,2.9-0.4,4.2c1.2,1.5,2.5,1.8,4.2,1.8c1.8,0,3.1-0.3,4.2-1.8
		C152.1,200.8,151.8,199.1,150.5,197.9z"/>
	<path class="st1" d="M127.9,197.9c-1.1-1-1.9-2.7-1.9-4.2c0-4.2,0-8.3,0-12.5c0-1.5,0.8-3.2,1.9-4.2c1.3-1.2,1.5-2.9,0.4-4.2
		c-1.2-1.5-2.5-1.8-4.2-1.8c-1.8,0-3.1,0.3-4.2,1.8c-1.1,1.4-0.9,3.1,0.4,4.2c1.1,1,1.9,2.7,1.9,4.2c0,4.2,0,8.3,0,12.5
		c0,1.5-0.8,3.2-1.9,4.2c-1.3,1.2-1.5,2.9-0.4,4.2c1.2,1.5,2.5,1.8,4.2,1.8c1.8,0,3.1-0.3,4.2-1.8
		C129.4,200.8,129.1,199.1,127.9,197.9z"/>
	<path class="st1" d="M709.8,197.9c1.1-1,1.9-2.7,1.9-4.2c0-4.2,0-8.3,0-12.5c0-1.5-0.8-3.2-1.9-4.2c-1.3-1.2-1.5-2.9-0.4-4.2
		c1.2-1.5,2.5-1.8,4.2-1.8s3.1,0.3,4.2,1.8c1.1,1.4,0.9,3.1-0.4,4.2c-1.1,1-1.9,2.7-1.9,4.2c0,4.2,0,8.3,0,12.5
		c0,1.5,0.8,3.2,1.9,4.2c1.3,1.2,1.5,2.9,0.4,4.2c-1.2,1.5-2.5,1.8-4.2,1.8s-3.1-0.3-4.2-1.8C708.3,200.8,708.5,199.1,709.8,197.9z"
		/>
	<path class="st1" d="M687.1,197.9c1.1-1,1.9-2.7,1.9-4.2c0-4.2,0-8.3,0-12.5c0-1.5-0.8-3.2-1.9-4.2c-1.3-1.2-1.5-2.9-0.4-4.2
		c1.2-1.5,2.5-1.8,4.2-1.8c1.8,0,3.1,0.3,4.2,1.8c1.1,1.4,0.9,3.1-0.4,4.2c-1.1,1-1.9,2.7-1.9,4.2c0,4.2,0,8.3,0,12.5
		c0,1.5,0.8,3.2,1.9,4.2c1.3,1.2,1.5,2.9,0.4,4.2c-1.2,1.5-2.5,1.8-4.2,1.8c-1.8,0-3.1-0.3-4.2-1.8
		C685.6,200.8,685.8,199.1,687.1,197.9z"/>
	<path class="st1" d="M664.4,197.9c1.1-1,1.9-2.7,1.9-4.2c0-4.2,0-8.3,0-12.5c0-1.5-0.8-3.2-1.9-4.2c-1.3-1.2-1.5-2.9-0.4-4.2
		c1.2-1.5,2.5-1.8,4.2-1.8c1.8,0,3.1,0.3,4.2,1.8c1.1,1.4,0.9,3.1-0.4,4.2c-1.1,1-1.9,2.7-1.9,4.2c0,4.2,0,8.3,0,12.5
		c0,1.5,0.8,3.2,1.9,4.2c1.3,1.2,1.5,2.9,0.4,4.2c-1.2,1.5-2.5,1.8-4.2,1.8c-1.8,0-3.1-0.3-4.2-1.8
		C662.9,200.8,663.2,199.1,664.4,197.9z"/>
	<path class="st1" d="M641.8,197.9c1.1-1,1.9-2.7,1.9-4.2c0-4.2,0-8.3,0-12.5c0-1.5-0.8-3.2-1.9-4.2c-1.3-1.2-1.5-2.9-0.4-4.2
		c1.2-1.5,2.5-1.8,4.2-1.8c1.8,0,3.1,0.3,4.2,1.8c1.1,1.4,0.9,3.1-0.4,4.2c-1.1,1-1.9,2.7-1.9,4.2c0,4.2,0,8.3,0,12.5
		c0,1.5,0.8,3.2,1.9,4.2c1.3,1.2,1.5,2.9,0.4,4.2c-1.2,1.5-2.5,1.8-4.2,1.8c-1.8,0-3.1-0.3-4.2-1.8
		C640.2,200.8,640.5,199.1,641.8,197.9z"/>
	<path class="st1" d="M619.1,197.9c1.1-1,1.9-2.7,1.9-4.2c0-4.2,0-8.3,0-12.5c0-1.5-0.8-3.2-1.9-4.2c-1.3-1.2-1.5-2.9-0.4-4.2
		c1.2-1.5,2.5-1.8,4.2-1.8c1.8,0,3.1,0.3,4.2,1.8c1.1,1.4,0.9,3.1-0.4,4.2c-1.1,1-1.9,2.7-1.9,4.2c0,4.2,0,8.3,0,12.5
		c0,1.5,0.8,3.2,1.9,4.2c1.3,1.2,1.5,2.9,0.4,4.2c-1.2,1.5-2.5,1.8-4.2,1.8c-1.8,0-3.1-0.3-4.2-1.8
		C617.6,200.8,617.8,199.1,619.1,197.9z"/>
	<path class="st1" d="M596.4,197.9c1.1-1,1.9-2.7,1.9-4.2c0-4.2,0-8.3,0-12.5c0-1.5-0.8-3.2-1.9-4.2c-1.3-1.2-1.5-2.9-0.4-4.2
		c1.2-1.5,2.5-1.8,4.2-1.8c1.8,0,3.1,0.3,4.2,1.8c1.1,1.4,0.9,3.1-0.4,4.2c-1.1,1-1.9,2.7-1.9,4.2c0,4.2,0,8.3,0,12.5
		c0,1.5,0.8,3.2,1.9,4.2c1.3,1.2,1.5,2.9,0.4,4.2c-1.2,1.5-2.5,1.8-4.2,1.8c-1.8,0-3.1-0.3-4.2-1.8
		C594.9,200.8,595.1,199.1,596.4,197.9z"/>
	<path class="st1" d="M573.7,197.9c1.1-1,1.9-2.7,1.9-4.2c0-4.2,0-8.3,0-12.5c0-1.5-0.8-3.2-1.9-4.2c-1.3-1.2-1.5-2.9-0.4-4.2
		c1.2-1.5,2.5-1.8,4.2-1.8c1.8,0,3.1,0.3,4.2,1.8c1.1,1.4,0.9,3.1-0.4,4.2c-1.1,1-1.9,2.7-1.9,4.2c0,4.2,0,8.3,0,12.5
		c0,1.5,0.8,3.2,1.9,4.2c1.3,1.2,1.5,2.9,0.4,4.2c-1.2,1.5-2.5,1.8-4.2,1.8c-1.8,0-3.1-0.3-4.2-1.8
		C572.2,200.8,572.4,199.1,573.7,197.9z"/>
	<path class="st1" d="M551,197.9c1.1-1,1.9-2.7,1.9-4.2c0-4.2,0-8.3,0-12.5c0-1.5-0.8-3.2-1.9-4.2c-1.3-1.2-1.5-2.9-0.4-4.2
		c1.2-1.5,2.5-1.8,4.2-1.8c1.8,0,3.1,0.3,4.2,1.8c1.1,1.4,0.9,3.1-0.4,4.2c-1.1,1-1.9,2.7-1.9,4.2c0,4.2,0,8.3,0,12.5
		c0,1.5,0.8,3.2,1.9,4.2c1.3,1.2,1.5,2.9,0.4,4.2c-1.2,1.5-2.5,1.8-4.2,1.8c-1.8,0-3.1-0.3-4.2-1.8
		C549.5,200.8,549.8,199.1,551,197.9z"/>
	<path class="st1" d="M528.4,197.9c1.1-1,1.9-2.7,1.9-4.2c0-4.2,0-8.3,0-12.5c0-1.5-0.8-3.2-1.9-4.2c-1.3-1.2-1.5-2.9-0.4-4.2
		c1.2-1.5,2.5-1.8,4.2-1.8c1.8,0,3.1,0.3,4.2,1.8c1.1,1.4,0.9,3.1-0.4,4.2c-1.1,1-1.9,2.7-1.9,4.2c0,4.2,0,8.3,0,12.5
		c0,1.5,0.8,3.2,1.9,4.2c1.3,1.2,1.5,2.9,0.4,4.2c-1.2,1.5-2.5,1.8-4.2,1.8c-1.8,0-3.1-0.3-4.2-1.8
		C526.8,200.8,527.1,199.1,528.4,197.9z"/>
	<path class="st1" d="M505.7,197.9c1.1-1,1.9-2.7,1.9-4.2c0-4.2,0-8.3,0-12.5c0-1.5-0.8-3.2-1.9-4.2c-1.3-1.2-1.5-2.9-0.4-4.2
		c1.2-1.5,2.5-1.8,4.2-1.8c1.8,0,3.1,0.3,4.2,1.8c1.1,1.4,0.9,3.1-0.4,4.2c-1.1,1-1.9,2.7-1.9,4.2c0,4.2,0,8.3,0,12.5
		c0,1.5,0.8,3.2,1.9,4.2c1.3,1.2,1.5,2.9,0.4,4.2c-1.2,1.5-2.5,1.8-4.2,1.8c-1.8,0-3.1-0.3-4.2-1.8
		C504.2,200.8,504.4,199.1,505.7,197.9z"/>
	<path class="st1" d="M483,197.9c1.1-1,1.9-2.7,1.9-4.2c0-4.2,0-8.3,0-12.5c0-1.5-0.8-3.2-1.9-4.2c-1.3-1.2-1.5-2.9-0.4-4.2
		c1.2-1.5,2.5-1.8,4.2-1.8c1.8,0,3.1,0.3,4.2,1.8c1.1,1.4,0.9,3.1-0.4,4.2c-1.1,1-1.9,2.7-1.9,4.2c0,4.2,0,8.3,0,12.5
		c0,1.5,0.8,3.2,1.9,4.2c1.3,1.2,1.5,2.9,0.4,4.2c-1.2,1.5-2.5,1.8-4.2,1.8c-1.8,0-3.1-0.3-4.2-1.8
		C481.5,200.8,481.7,199.1,483,197.9z"/>
</g>
<g>
	<path class="st0" d="M21.9,772.1C22,654.8,32.7,539.8,54.3,424.5"/>
	<path class="st0" d="M54.8,422.3c0-0.1,0-0.2,0.1-0.3c9.4-46.2,50-79.5,97.2-79.5c86.8,0,173.6,0,260.4,0"/>
	<path class="st0" d="M412.7,1037c-42.6,0-85.2,0-127.8,0C99.5,1037,22.4,935.9,21.9,774.7c0-0.1,0-0.2,0-0.3"/>
	<path class="st0" d="M805.7,774.4c-0.4,161.4-77.5,262.6-262.9,262.6c-42.6,0-85.2,0-127.8,0"/>
	<path class="st0" d="M773.3,424.5c21.6,115.4,32.4,230.3,32.4,347.7"/>
	<path class="st0" d="M415.2,342.5c86.8,0,173.6,0,260.4,0c47.3,0,88,33.4,97.3,79.8"/>
	<path class="st1" d="M726,503.2c26.7-24.4,28-66,2.8-92c-1.3-1.3-1.9-2.6-2-4.5c-0.3-4.5-5.8-6.4-8.9-3.1c-3,3.3-0.6,8.6,3.9,8.5
		c2.3-0.1,3.8,0.6,5.3,2.2c22.7,24.4,21.6,62.5-2.6,85.4c-1.6,1.5-3.2,2.1-5.5,1.9c-4.5-0.4-7.2,4.8-4.4,8.3c2.8,3.5,8.5,1.9,9-2.6
		C724,505.7,724.7,504.4,726,503.2z"/>
	<path class="st1" d="M98.8,411.3c1.3-1.3,1.9-2.6,2-4.5c0.3-4.5,5.8-6.4,8.9-3.1c3,3.3,0.6,8.6-3.9,8.5c-2.3-0.1-3.8,0.6-5.3,2.2
		c-22.7,24.4-21.6,62.5,2.6,85.4c1.6,1.5,3.2,2.1,5.5,1.9c4.5-0.4,7.2,4.8,4.4,8.3c-2.8,3.5-8.5,1.9-9-2.6c-0.2-1.8-0.9-3.1-2.3-4.3
		C74.9,478.8,73.6,437.2,98.8,411.3z"/>
</g>
<g>
	<path class="st0" d="M812.8,772.1c0.1-117.4,10.8-232.3,32.4-347.7"/>
	<path class="st0" d="M845.7,422.3c0-0.1,0-0.2,0.1-0.3c9.4-46.2,50-79.5,97.2-79.5c86.8,0,173.6,0,260.4,0"/>
	<path class="st0" d="M1203.6,1037c-42.6,0-85.2,0-127.8,0c-185.3,0-262.5-101.1-262.9-262.3c0-0.1,0-0.2,0-0.3"/>
	<path class="st0" d="M1596.6,774.4c-0.4,161.4-77.5,262.6-262.9,262.6c-42.6,0-85.2,0-127.8,0"/>
	<path class="st0" d="M1564.2,424.5c21.6,115.4,32.4,230.3,32.4,347.7"/>
	<path class="st0" d="M1206.1,342.5c86.8,0,173.6,0,260.4,0c47.3,0,88,33.4,97.3,79.8"/>
	<path class="st1" d="M1516.9,503.2c26.7-24.4,28-66,2.8-92c-1.3-1.3-1.9-2.6-2-4.5c-0.3-4.5-5.8-6.4-8.9-3.1
		c-3,3.3-0.6,8.6,3.9,8.5c2.3-0.1,3.8,0.6,5.3,2.2c22.7,24.4,21.6,62.5-2.6,85.4c-1.6,1.5-3.2,2.1-5.5,1.9c-4.5-0.4-7.2,4.8-4.4,8.3
		s8.5,1.9,9-2.6C1514.9,505.7,1515.6,504.4,1516.9,503.2z"/>
	<path class="st1" d="M889.7,411.3c1.3-1.3,1.9-2.6,2-4.5c0.3-4.5,5.8-6.4,8.9-3.1c3,3.3,0.6,8.6-3.9,8.5c-2.3-0.1-3.8,0.6-5.3,2.2
		c-22.7,24.4-21.6,62.5,2.6,85.4c1.6,1.5,3.2,2.1,5.5,1.9c4.5-0.4,7.2,4.8,4.4,8.3c-2.8,3.5-8.5,1.9-9-2.6c-0.2-1.8-0.9-3.1-2.3-4.3
		C865.8,478.8,864.5,437.2,889.7,411.3z"/>
</g>
</svg>
